<svg xmlns="http://www.w3.org/2000/svg" width="38.223" height="40.85" viewBox="0 0 38.223 40.85">
  <path id="discord-brands" d="M25.358,19.4a2.228,2.228,0,1,1-2.228-2.267A2.242,2.242,0,0,1,25.358,19.4Zm-10.2-2.267A2.267,2.267,0,1,0,17.386,19.4,2.242,2.242,0,0,0,15.158,17.136ZM38.223,4.208V40.85c-5.5-4.547-3.743-3.042-10.134-8.6l1.158,3.779H4.478A4.349,4.349,0,0,1,0,31.822V4.208A4.349,4.349,0,0,1,4.478,0H33.745A4.349,4.349,0,0,1,38.223,4.208ZM32,23.57a26.015,26.015,0,0,0-3.145-11.908,11.313,11.313,0,0,0-6.137-2.145l-.306.327a14.853,14.853,0,0,1,5.439,2.594,19.714,19.714,0,0,0-16.316-.592c-.808.347-1.289.592-1.289.592a15.075,15.075,0,0,1,5.744-2.676l-.218-.245a11.313,11.313,0,0,0-6.137,2.145A26.015,26.015,0,0,0,6.487,23.57s1.835,2.962,6.662,3.1c0,0,.808-.919,1.463-1.7a6.768,6.768,0,0,1-3.822-2.41c.321.21.851.483.9.511a16.911,16.911,0,0,0,13.629.715,12.847,12.847,0,0,0,2.512-1.205,6.88,6.88,0,0,1-3.953,2.431c.655.776,1.442,1.654,1.442,1.654,4.827-.143,6.684-3.1,6.684-3.1Z"/>
</svg>
