<svg xmlns="http://www.w3.org/2000/svg" width="42.494" height="42.484" viewBox="0 0 42.494 42.484">
  <path id="instagram-brands" d="M21.177,42.175A10.892,10.892,0,1,0,32.069,53.067,10.875,10.875,0,0,0,21.177,42.175Zm0,17.974a7.082,7.082,0,1,1,7.082-7.082,7.094,7.094,0,0,1-7.082,7.082Zm13.879-18.42a2.541,2.541,0,1,1-2.541-2.541A2.535,2.535,0,0,1,35.055,41.729Zm7.214,2.579c-.161-3.4-.939-6.418-3.432-8.9s-5.5-3.261-8.9-3.432c-3.508-.2-14.021-.2-17.528,0-3.394.161-6.408.939-8.9,3.422S.245,40.895.074,44.3c-.2,3.508-.2,14.021,0,17.528.161,3.4.939,6.418,3.432,8.9s5.5,3.261,8.9,3.432c3.508.2,14.021.2,17.528,0,3.4-.161,6.418-.939,8.9-3.432s3.261-5.5,3.432-8.9C42.469,58.319,42.469,47.815,42.27,44.308ZM37.738,65.59A7.169,7.169,0,0,1,33.7,69.629c-2.8,1.109-9.433.853-12.523.853s-9.736.246-12.523-.853A7.169,7.169,0,0,1,4.615,65.59c-1.109-2.8-.853-9.433-.853-12.523s-.246-9.736.853-12.523a7.169,7.169,0,0,1,4.038-4.038c2.8-1.109,9.433-.853,12.523-.853s9.736-.246,12.523.853a7.169,7.169,0,0,1,4.038,4.038c1.109,2.8.853,9.433.853,12.523S38.847,62.8,37.738,65.59Z" transform="translate(0.075 -31.825)"/>
</svg>
